<?xml version="1.0" encoding="utf-8"?>
<!-- Generator: Adobe Illustrator 19.1.0, SVG Export Plug-In . SVG Version: 6.00 Build 0)  -->
<svg version="1.1" id="Layer_1" xmlns="http://www.w3.org/2000/svg" xmlns:xlink="http://www.w3.org/1999/xlink" x="0px" y="0px"
	 viewBox="-461 262.1 36.6 36.8" style="enable-background:new -461 262.1 36.6 36.8;" xml:space="preserve">
<style type="text/css">
	.st0{fill:#C0392B;}
	.st1{fill:#FFFFFF;}
	.st2{fill:#519640;}
</style>
<circle class="st0" cx="-876.3" cy="840.9" r="17.9"/>
<g>
	<path class="st1" d="M-870.5,851.3c-4.1,0-8.2,0-12.3,0c-1.4-0.6-1.8-1.7-1.8-3.3c0.1-4.8,0.1-9.5,0-14.3c0-1.5,0.4-2.6,1.8-3.3
		c4.1,0,8.2,0,12.3,0c1.4,0.6,1.8,1.7,1.8,3.3c-0.1,4.8-0.1,9.5,0,14.3C-868.7,849.6-869.1,850.7-870.5,851.3z M-870.3,849.7
		c0-5.9,0-11.7,0-17.5c-4.3,0-8.5,0-12.7,0c0,5.9,0,11.7,0,17.5C-878.8,849.7-874.6,849.7-870.3,849.7z"/>
	<path class="st1" d="M-878.2,843.3c0-0.5,0-0.9,0-1.4c2.1,0,4.2,0,6.3,0c0,0.5,0,0.9,0,1.4C-874.1,843.3-876.1,843.3-878.2,843.3z"
		/>
	<path class="st1" d="M-872,835.4c0,0.5,0,0.9,0,1.4c-2.1,0-4.1,0-6.2,0c0-0.4,0-0.9,0-1.4C-876.2,835.4-874.1,835.4-872,835.4z"/>
	<path class="st1" d="M-878.3,840.1c0-0.5,0-1,0-1.5c1.8,0,3.6,0,5.5,0c0,0.5,0,1,0,1.5C-874.6,840.1-876.4,840.1-878.3,840.1z"/>
	<path class="st1" d="M-872.8,846.4c-1.8,0-3.6,0-5.4,0c0-0.5,0-0.9,0-1.4c1.8,0,3.6,0,5.4,0C-872.8,845.5-872.8,845.9-872.8,846.4z
		"/>
	<path class="st1" d="M-880,838.6c0,0.5,0,0.9,0,1.4c-0.4,0-0.9,0-1.4,0c0-0.4,0-0.9,0-1.4C-880.9,838.6-880.5,838.6-880,838.6z"/>
	<path class="st1" d="M-880,841.8c0,0.5,0,1,0,1.5c-0.5,0-0.9,0-1.4,0c0-0.5,0-0.9,0-1.5C-881,841.8-880.5,841.8-880,841.8z"/>
	<path class="st1" d="M-880,836.8c-0.5,0-0.9,0-1.4,0c0-0.5,0-0.9,0-1.4c0.5,0,0.9,0,1.4,0C-880,835.9-880,836.4-880,836.8z"/>
	<path class="st1" d="M-880,845c0,0.5,0,0.9,0,1.4c-0.5,0-0.9,0-1.4,0c0-0.5,0-0.9,0-1.4C-880.9,845-880.5,845-880,845z"/>
</g>
<circle class="st2" cx="-442.7" cy="280.6" r="17.9"/>
<g>
	<path class="st1" d="M-443,283.7c-0.3,0-0.6-0.1-1.3-0.4l-9-4.7v9c0,0.7,0.6,1.3,1.3,1.3h18.1c0.7,0,1.3-0.6,1.3-1.3v-9l-9,4.7
		C-442.3,283.6-442.6,283.7-443,283.7z M-433.9,273.4H-452c-0.7,0-1.3,0.6-1.3,1.3v1l10.3,5.4l10.4-5.4v-1
		C-432.6,274-433.2,273.4-433.9,273.4z"/>
</g>
</svg>
