<?xml version="1.0" encoding="utf-8"?>
<!-- Generator: Adobe Illustrator 19.1.0, SVG Export Plug-In . SVG Version: 6.00 Build 0)  -->
<svg version="1.1" id="Layer_1" xmlns="http://www.w3.org/2000/svg" xmlns:xlink="http://www.w3.org/1999/xlink" x="0px" y="0px"
	 viewBox="-461 263.4 35.6 35.6" style="enable-background:new -461 263.4 35.6 35.6;" xml:space="preserve">
<style type="text/css">
	.st0{fill:#C0392B;}
	.st1{fill:#FFFFFF;}
	.st2{fill:#2B2B2B;}
</style>
<circle class="st0" cx="-415.3" cy="577.5" r="17.9"/>
<g>
	<path class="st1" d="M-409.5,587.9c-4.1,0-8.2,0-12.3,0c-1.4-0.6-1.8-1.7-1.8-3.3c0.1-4.8,0.1-9.5,0-14.3c0-1.5,0.4-2.6,1.8-3.3
		c4.1,0,8.2,0,12.3,0c1.4,0.6,1.8,1.7,1.8,3.3c-0.1,4.8-0.1,9.5,0,14.3C-407.7,586.2-408.1,587.3-409.5,587.9z M-409.3,586.3
		c0-5.9,0-11.7,0-17.5c-4.3,0-8.5,0-12.7,0c0,5.9,0,11.7,0,17.5C-417.8,586.3-413.6,586.3-409.3,586.3z"/>
	<path class="st1" d="M-417.2,579.9c0-0.5,0-0.9,0-1.4c2.1,0,4.2,0,6.3,0c0,0.5,0,0.9,0,1.4C-413.1,579.9-415.1,579.9-417.2,579.9z"
		/>
	<path class="st1" d="M-411,572c0,0.5,0,0.9,0,1.4c-2.1,0-4.1,0-6.2,0c0-0.4,0-0.9,0-1.4C-415.2,572-413.1,572-411,572z"/>
	<path class="st1" d="M-417.3,576.7c0-0.5,0-1,0-1.5c1.8,0,3.6,0,5.5,0c0,0.5,0,1,0,1.5C-413.6,576.7-415.4,576.7-417.3,576.7z"/>
	<path class="st1" d="M-411.8,583c-1.8,0-3.6,0-5.4,0c0-0.5,0-0.9,0-1.4c1.8,0,3.6,0,5.4,0C-411.8,582.1-411.8,582.5-411.8,583z"/>
	<path class="st1" d="M-419,575.2c0,0.5,0,0.9,0,1.4c-0.4,0-0.9,0-1.4,0c0-0.4,0-0.9,0-1.4C-419.9,575.2-419.5,575.2-419,575.2z"/>
	<path class="st1" d="M-419,578.4c0,0.5,0,1,0,1.5c-0.5,0-0.9,0-1.4,0c0-0.5,0-0.9,0-1.5C-420,578.4-419.5,578.4-419,578.4z"/>
	<path class="st1" d="M-419,573.4c-0.5,0-0.9,0-1.4,0c0-0.5,0-0.9,0-1.4c0.5,0,0.9,0,1.4,0C-419,572.5-419,573-419,573.4z"/>
	<path class="st1" d="M-419,581.6c0,0.5,0,0.9,0,1.4c-0.5,0-0.9,0-1.4,0c0-0.5,0-0.9,0-1.4C-419.9,581.6-419.5,581.6-419,581.6z"/>
</g>
<circle class="st2" cx="-443.3" cy="280.9" r="17.9"/>
<g>
	<path class="st1" d="M-443.1,283.4c-0.3,0-0.6-0.1-1.3-0.4l-9-4.7v9c0,0.7,0.6,1.3,1.3,1.3h18.1c0.7,0,1.3-0.6,1.3-1.3v-9l-9,4.7
		C-442.4,283.3-442.7,283.4-443.1,283.4z M-434,273.1h-18.1c-0.7,0-1.3,0.6-1.3,1.3v1l10.3,5.4l10.4-5.4v-1
		C-432.7,273.7-433.3,273.1-434,273.1z"/>
</g>
</svg>
