<?xml version="1.0" encoding="utf-8"?>
<!-- Generator: Adobe Illustrator 19.1.0, SVG Export Plug-In . SVG Version: 6.00 Build 0)  -->
<svg version="1.1" id="Layer_1" xmlns="http://www.w3.org/2000/svg" xmlns:xlink="http://www.w3.org/1999/xlink" x="0px" y="0px"
	 viewBox="-461 263.4 35.6 35.6" style="enable-background:new -461 263.4 35.6 35.6;" xml:space="preserve">
<style type="text/css">
	.st0{fill:#2B2B2B;}
	.st1{fill:#FFFFFF;}
</style>
<circle class="st0" cx="-443.2" cy="281.2" r="17.8"/>
<path class="st1" d="M-433.5,279.8l-2-2v-4.9c0-0.8-0.6-1.4-1.4-1.4h-1.4c-0.8,0-1.4,0.6-1.4,1.4v0.8l-2.8-2.8
	c-0.4-0.4-0.7-0.8-1.4-0.8c-0.7,0-1,0.4-1.4,0.8l-8.7,8.9c-0.4,0.4-0.8,0.8-0.8,1.4c0,0.8,0.6,1.4,1.4,1.4h1.4v8.3
	c0,0.8,0.6,1.4,1.4,1.4h4.1v-6.9c0-0.8,0.6-1.4,1.4-1.4h2.8c0.8,0,1.4,0.6,1.4,1.4v6.9h4.1c0.8,0,1.4-0.6,1.4-1.4v-8.3h1.4
	c0.8,0,1.4-0.6,1.4-1.4C-432.7,280.6-433,280.3-433.5,279.8z"/>
</svg>
