<?xml version="1.0" encoding="utf-8"?>
<!-- Generator: Adobe Illustrator 19.1.0, SVG Export Plug-In . SVG Version: 6.00 Build 0)  -->
<svg version="1.1" id="Layer_1" xmlns="http://www.w3.org/2000/svg" xmlns:xlink="http://www.w3.org/1999/xlink" x="0px" y="0px"
	 viewBox="0 0 111 111.5" style="enable-background:new 0 0 111 111.5;" xml:space="preserve">
<style type="text/css">
	.st0{fill:#0071BC;}
	.st1{fill:#232323;}
	.st2{fill-rule:evenodd;clip-rule:evenodd;fill:#0071BC;}
	.st3{fill-rule:evenodd;clip-rule:evenodd;fill:#232323;}
</style>
<path class="st0" d="M176.8,5.9l10.8,32.2c0.4,1.3,1.7,2.2,3,2.3l33,0.7c3.1,0.1,4.4,4.1,1.9,6.1l-26.3,20.6
	c-1.1,0.9-1.5,2.3-1.2,3.7l9.6,32.6c0.9,3.1-2.5,5.6-5,3.8l-27.1-19.5c-1.1-0.8-2.6-0.8-3.7,0l-27.1,19.5c-2.5,1.8-5.9-0.7-5-3.8
	l9.5-32.7c0.4-1.4-0.1-2.8-1.2-3.7l-26.3-20.6c-2.5-1.9-1.2-6,1.9-6.1l33-0.7c1.4,0,2.6-0.9,3-2.3l10.8-32.2
	C171.6,2.9,175.8,2.9,176.8,5.9z"/>
<g id="slice_2_" transform="translate(215.000000, 119.000000)">
</g>
<path id="circle-backup-time-history-recent-time-machine-glyph_3_" class="st0" d="M250,48.5c-3.9-4.2,16-43.5,47.8-42.8
	c26.8,0.5,48.6,22.8,48.6,51.3s-21.7,51.5-48.6,51.5c-18.2,0-34-10-42.3-26.3c-0.4-0.9,0.2-1.9,1.2-1.9h7.5c0.4,0,0.8,0.2,1.1,0.6
	c7.2,10.8,19.1,18.1,32.6,18.1c21.9,0,39.7-18.9,39.7-42.3s-17.8-41.6-39.7-41.6c-18.6,0-34.2,12.4-38.5,32.4c-0.1,0.6-0.6,1-1.3,1
	H250L250,48.5z M295,58.7l22,13.4c0.6,0.4,1.3,0.2,1.7-0.4l1.4-1.9c0.4-0.6,0.3-1.5-0.4-1.9l-18.5-12c-0.4-0.2-0.6-0.7-0.6-1.1V26
	c0-0.7-0.6-1.3-1.3-1.3h-3.7c-0.7,0-1.3,0.6-1.3,1.3v31.6C294.3,58,294.6,58.5,295,58.7z M254.7,65.8l10.7-15.2
	c0.6-0.9,0-2.1-1.1-2.1h-21.4c-1.1,0-1.7,1.2-1.1,2.1l10.7,15.2C253.1,66.5,254.2,66.5,254.7,65.8z"/>
<g>
	<path class="st0" d="M10.5,80.7c0,4.9,2.2,9.3,5.6,12.3v9.9c0,3.1,2.5,5.6,5.6,5.6h5.6c3.1,0,5.6-2.5,5.6-5.6v-5.6h44.5v5.6
		c0,3.1,2.5,5.6,5.6,5.6h5.6c3.1,0,5.6-2.5,5.6-5.6V93c3.4-3.1,5.6-7.4,5.6-12.3V25.1C99.5,5.6,79.6,2.8,55,2.8S10.5,5.6,10.5,25.1
		C10.5,25.1,10.5,80.7,10.5,80.7z M30,86.2c-4.6,0-8.3-3.7-8.3-8.3s3.7-8.3,8.3-8.3s8.3,3.7,8.3,8.3S34.6,86.2,30,86.2z M80,86.2
		c-4.6,0-8.3-3.7-8.3-8.3s3.7-8.3,8.3-8.3s8.3,3.7,8.3,8.3S84.6,86.2,80,86.2z M88.4,52.9H21.6V25.1h66.8V52.9z"/>
</g>
<g>
	<path class="st1" d="M10.5,198.7c0,4.9,2.2,9.3,5.6,12.3v9.9c0,3.1,2.5,5.6,5.6,5.6h5.6c3.1,0,5.6-2.5,5.6-5.6v-5.6h44.5v5.6
		c0,3.1,2.5,5.6,5.6,5.6h5.6c3.1,0,5.6-2.5,5.6-5.6V211c3.4-3.1,5.6-7.4,5.6-12.3V143c0-19.5-19.9-22.2-44.5-22.2
		s-44.5,2.8-44.5,22.2C10.5,143,10.5,198.7,10.5,198.7z M30,204.2c-4.6,0-8.3-3.7-8.3-8.3c0-4.6,3.7-8.3,8.3-8.3s8.3,3.7,8.3,8.3
		C38.3,200.5,34.6,204.2,30,204.2z M80,204.2c-4.6,0-8.3-3.7-8.3-8.3c0-4.6,3.7-8.3,8.3-8.3s8.3,3.7,8.3,8.3
		C88.4,200.5,84.6,204.2,80,204.2z M88.4,170.9H21.6V143h66.8V170.9z"/>
</g>
<g>
	<path class="st2" d="M432.8,68.4c0-4.4,3.5-8.1,7.8-8.5c-1-4.6-2.9-8.9-5.3-12.8c-1.5,1.2-3.3,1.9-5.3,1.9c-4.7,0-8.5-3.9-8.5-8.5
		c0-2,0.7-3.9,2-5.4c-4.2-2.8-8.9-4.8-14-5.9c-0.5,4.2-4.2,7.5-8.5,7.5c-4.3,0-7.9-3.3-8.5-7.5c-5.1,1.1-9.8,3.1-13.9,5.9
		c1.3,1.5,2.2,3.5,2.2,5.6c0,4.7-3.9,8.5-8.5,8.5c-2.1,0-4-0.8-5.5-2.1c-2.5,4-4.4,8.4-5.4,13.2c4.2,0.5,7.5,4.2,7.5,8.5
		c0,4.3-3.3,7.9-7.5,8.5c1,4.8,2.9,9.3,5.5,13.3c1.5-1.2,3.4-2,5.4-2c4.7,0,8.5,3.9,8.5,8.5c0,2.1-0.8,4-2.1,5.5
		c4.1,2.7,8.8,4.7,13.8,5.8c0.5-4.2,4.1-7.6,8.5-7.6s8,3.4,8.5,7.6c5-1.1,9.6-3,13.7-5.7c-1.3-1.5-2.1-3.5-2.1-5.6
		c0-4.7,3.9-8.5,8.5-8.5c2.1,0,4,0.8,5.5,2.1c2.7-4.1,4.6-8.8,5.6-13.8C436.4,76.6,432.8,72.9,432.8,68.4z M401.2,81.7
		c-7.3,0-13.5-6.1-13.5-13.5c0-7.3,6.1-13.5,13.5-13.5c7.3,0,13.5,6.1,13.5,13.5C414.7,75.6,408.5,81.7,401.2,81.7z"/>
	<path class="st2" d="M457.7,19c-0.9-2-0.1-4.4,1.7-5.5c-1.4-1.9-3.2-3.4-5.1-4.7c-0.4,0.8-1.1,1.5-2,2c-2.1,1-4.7,0-5.7-2.1
		c-0.4-0.9-0.5-1.9-0.2-2.9c-2.5-0.4-5-0.3-7.6,0.3c0.6,2-0.3,4.3-2.3,5.2c-1.9,0.9-4.3,0.2-5.4-1.6c-2.1,1.6-3.8,3.5-5.1,5.6
		c0.9,0.4,1.7,1.1,2.2,2.1c1,2.1,0,4.7-2.1,5.7c-0.9,0.4-2,0.5-2.9,0.2c-0.3,2.3-0.2,4.8,0.3,7.1c2-0.6,4.3,0.3,5.2,2.3
		c0.9,1.9,0.2,4.3-1.6,5.4c1.5,2,3.3,3.6,5.3,4.9c0.4-0.9,1.1-1.6,2-2c2.1-1,4.7,0,5.7,2.1c0.4,0.9,0.5,2,0.2,2.9
		c2.4,0.4,5,0.3,7.5-0.3c-0.7-2,0.3-4.3,2.2-5.3c2-0.9,4.4-0.2,5.5,1.7c2-1.5,3.7-3.4,5-5.5c-0.9-0.4-1.7-1.1-2.1-2.1
		c-1-2.1,0-4.7,2.1-5.7c1-0.4,2-0.5,3-0.2c0.3-2.4,0.2-5-0.4-7.4C461,22,458.6,21,457.7,19z M446.1,31.7c-3.3,1.6-7.4,0.1-9-3.3
		c-1.6-3.3-0.1-7.4,3.3-8.9c3.3-1.6,7.4-0.1,8.9,3.3C450.9,26.1,449.5,30.2,446.1,31.7z"/>
</g>
<path class="st1" d="M178,123.9l10.8,32.2c0.4,1.3,1.7,2.2,3,2.3l33,0.7c3.1,0.1,4.4,4.1,1.9,6.1l-26.3,20.6
	c-1.1,0.9-1.5,2.3-1.2,3.7l9.6,32.6c0.9,3.1-2.5,5.6-5,3.8l-27.1-19.5c-1.1-0.8-2.6-0.8-3.7,0L146,225.9c-2.5,1.8-5.9-0.7-5-3.8
	l9.5-32.7c0.4-1.4-0.1-2.8-1.2-3.7l-26.3-20.6c-2.5-1.9-1.2-6,1.9-6.1l33-0.7c1.4,0,2.6-0.9,3-2.3l10.8-32.2
	C172.9,120.9,177,120.9,178,123.9z"/>
<path id="circle-backup-time-history-recent-time-machine-glyph_4_" class="st1" d="M251.3,166.5c-3.9-4.2,16-43.5,47.8-42.8
	c26.8,0.5,48.6,22.8,48.6,51.3s-21.7,51.5-48.6,51.5c-18.2,0-34-10-42.3-26.3c-0.4-0.9,0.2-1.9,1.2-1.9h7.5c0.4,0,0.8,0.2,1.1,0.6
	c7.2,10.8,19.1,18.1,32.6,18.1c21.9,0,39.7-18.9,39.7-42.3S321,133,299,133c-18.6,0-34.2,12.4-38.5,32.4c-0.1,0.6-0.6,1-1.3,1H251.3
	L251.3,166.5z M296.2,176.7l22,13.4c0.6,0.4,1.3,0.2,1.7-0.4l1.4-1.9c0.4-0.6,0.3-1.5-0.4-1.9l-18.5-12c-0.4-0.2-0.6-0.7-0.6-1.1
	V144c0-0.7-0.6-1.3-1.3-1.3h-3.7c-0.7,0-1.3,0.6-1.3,1.3v31.6C295.6,176,295.8,176.4,296.2,176.7z M255.9,183.8l10.7-15.2
	c0.6-0.9,0-2.1-1.1-2.1h-21.4c-1.1,0-1.7,1.2-1.1,2.1l10.7,15.2C254.3,184.5,255.4,184.5,255.9,183.8z"/>
<g>
	<path class="st3" d="M434.1,186.4c0-4.4,3.5-8.1,7.8-8.5c-1-4.6-2.9-8.9-5.3-12.8c-1.5,1.2-3.3,1.9-5.3,1.9c-4.7,0-8.5-3.9-8.5-8.5
		c0-2,0.7-3.9,2-5.4c-4.2-2.8-8.9-4.8-14-5.9c-0.5,4.2-4.2,7.5-8.5,7.5c-4.3,0-7.9-3.3-8.5-7.5c-5.1,1.1-9.8,3.1-13.9,5.9
		c1.3,1.5,2.2,3.5,2.2,5.6c0,4.7-3.9,8.5-8.5,8.5c-2.1,0-4-0.8-5.5-2.1c-2.5,4-4.4,8.4-5.4,13.2c4.2,0.5,7.5,4.2,7.5,8.5
		c0,4.3-3.3,7.9-7.5,8.5c1,4.8,2.9,9.3,5.5,13.3c1.5-1.2,3.4-2,5.4-2c4.7,0,8.5,3.9,8.5,8.5c0,2.1-0.8,4-2.1,5.5
		c4.1,2.7,8.8,4.7,13.8,5.8c0.5-4.2,4.1-7.6,8.5-7.6c4.4,0,8,3.4,8.5,7.6c5-1.1,9.6-3,13.7-5.7c-1.3-1.5-2.1-3.5-2.1-5.6
		c0-4.7,3.9-8.5,8.5-8.5c2.1,0,4,0.8,5.5,2.1c2.7-4.1,4.6-8.8,5.6-13.8C437.6,194.6,434.1,190.9,434.1,186.4z M402.5,199.7
		c-7.3,0-13.5-6.1-13.5-13.5c0-7.3,6.1-13.5,13.5-13.5c7.3,0,13.5,6.1,13.5,13.5C415.9,193.6,409.8,199.7,402.5,199.7z"/>
	<path class="st3" d="M458.9,137c-0.9-2-0.1-4.4,1.7-5.5c-1.4-1.9-3.2-3.4-5.1-4.7c-0.4,0.8-1.1,1.5-2,2c-2.1,1-4.7,0-5.7-2.1
		c-0.4-0.9-0.5-1.9-0.2-2.9c-2.5-0.4-5-0.3-7.6,0.3c0.6,2-0.3,4.3-2.3,5.2c-1.9,0.9-4.3,0.2-5.4-1.6c-2.1,1.6-3.8,3.5-5.1,5.6
		c0.9,0.4,1.7,1.1,2.2,2.1c1,2.1,0,4.7-2.1,5.7c-0.9,0.4-2,0.5-2.9,0.2c-0.3,2.3-0.2,4.8,0.3,7.1c2-0.6,4.3,0.3,5.2,2.3
		c0.9,1.9,0.2,4.3-1.6,5.4c1.5,2,3.3,3.6,5.3,4.9c0.4-0.9,1.1-1.6,2-2c2.1-1,4.7,0,5.7,2.1c0.4,0.9,0.5,2,0.2,2.9
		c2.4,0.4,5,0.3,7.5-0.3c-0.7-2,0.3-4.3,2.2-5.3c2-0.9,4.4-0.2,5.5,1.7c2-1.5,3.7-3.4,5-5.5c-0.9-0.4-1.7-1.1-2.1-2.1
		c-1-2.1,0-4.7,2.1-5.7c1-0.4,2-0.5,3-0.2c0.3-2.4,0.2-5-0.4-7.4C462.2,140,459.8,139,458.9,137z M447.4,149.7
		c-3.3,1.6-7.4,0.1-9-3.3c-1.6-3.3-0.1-7.4,3.3-8.9c3.3-1.6,7.4-0.1,8.9,3.3C452.2,144.1,450.7,148.2,447.4,149.7z"/>
</g>
</svg>
