<?xml version="1.0" encoding="utf-8"?>
<!-- Generator: Adobe Illustrator 19.1.0, SVG Export Plug-In . SVG Version: 6.00 Build 0)  -->
<svg version="1.1" id="Layer_1" xmlns="http://www.w3.org/2000/svg" xmlns:xlink="http://www.w3.org/1999/xlink" x="0px" y="0px"
	 viewBox="-461 263.4 36.9 36.9" style="enable-background:new -461 263.4 36.9 36.9;" xml:space="preserve">
<style type="text/css">
	.st0{fill:#519640;}
	.st1{fill:#FFFFFF;}
</style>
<g>
	<circle class="st0" cx="-442.5" cy="282" r="17.9"/>
	<path id="shop_13_" class="st1" d="M-431.8,278.6l-2.1-2.9c-0.1-0.1-0.2-0.2-0.3-0.3V272c0-0.8-0.6-1.4-1.4-1.4H-450
		c-0.8,0-1.4,0.6-1.4,1.4v3.4c-0.1,0.1-0.2,0.2-0.3,0.3l-2.1,2.9c-0.3,0.4-0.4,0.8-0.4,1.3v0.7c0,1.2,1,2.1,2.1,2.1l0,0v9.3
		c0,0.8,0.6,1.4,1.4,1.4h15.7c0.8,0,1.4-0.6,1.4-1.4v-9.3l0,0c1.2,0,2.1-1,2.1-2.1v-0.7C-431.4,279.4-431.5,278.9-431.8,278.6z
		 M-435.7,272v2.9H-450l0,0V272H-435.7z M-447,281.3h-3l2.9-5h1.6L-447,281.3z M-444.8,276.3h1.6v5h-3L-444.8,276.3z M-442.5,276.3
		h1.6l1.4,5h-3.1v-5H-442.5z M-440.1,276.3h1.6l2.9,5h-3L-440.1,276.3z M-452.9,280.6v-0.7c0-0.2,0.1-0.3,0.1-0.4l2.1-2.9
		c0.1-0.2,0.3-0.3,0.6-0.3h2l-2.9,5h-1.1C-452.5,281.3-452.9,281-452.9,280.6z M-440,292h-5.4v-7.2h5.4V292z M-435,292h-4.3v-7.2
		c0-0.4-0.3-0.7-0.7-0.7h-5.4c-0.4,0-0.7,0.3-0.7,0.7v7.2h-4.6v-9.3h15.7V292z M-432.8,280.6c0,0.4-0.3,0.7-0.7,0.7h-1.3l-2.9-5h2
		l0,0c0.2,0,0.4,0.1,0.6,0.3l2.1,2.9c0.1,0.1,0.1,0.3,0.1,0.4L-432.8,280.6L-432.8,280.6z"/>
</g>
</svg>
