<?xml version="1.0" encoding="utf-8"?>
<!-- Generator: Adobe Illustrator 19.1.0, SVG Export Plug-In . SVG Version: 6.00 Build 0)  -->
<svg version="1.1" id="Layer_1" xmlns="http://www.w3.org/2000/svg" xmlns:xlink="http://www.w3.org/1999/xlink" x="0px" y="0px"
	 viewBox="-461 263.4 35.6 35.6" style="enable-background:new -461 263.4 35.6 35.6;" xml:space="preserve">
<style type="text/css">
	.st0{fill:#2B2B2B;}
	.st1{fill:#FFFFFF;}
</style>
<circle class="st0" cx="-443.3" cy="281.2" r="17.9"/>
<path id="shop_13_" class="st1" d="M-432.6,277.8l-2.1-2.9c-0.1-0.1-0.2-0.2-0.3-0.3v-3.4c0-0.8-0.6-1.4-1.4-1.4h-14.4
	c-0.8,0-1.4,0.6-1.4,1.4v3.4c-0.1,0.1-0.2,0.2-0.3,0.3l-2.1,2.9c-0.3,0.4-0.4,0.8-0.4,1.3v0.7c0,1.2,1,2.1,2.1,2.1l0,0v9.3
	c0,0.8,0.6,1.4,1.4,1.4h15.7c0.8,0,1.4-0.6,1.4-1.4v-9.3l0,0c1.2,0,2.1-1,2.1-2.1v-0.7C-432.2,278.6-432.3,278.1-432.6,277.8z
	 M-436.5,271.2v2.9h-14.3l0,0v-2.9H-436.5z M-447.8,280.5h-3l2.9-5h1.6L-447.8,280.5z M-445.6,275.5h1.6v5h-3L-445.6,275.5z
	 M-443.3,275.5h1.6l1.4,5h-3.1v-5H-443.3z M-440.9,275.5h1.6l2.9,5h-3L-440.9,275.5z M-453.7,279.8v-0.7c0-0.2,0.1-0.3,0.1-0.4
	l2.1-2.9c0.1-0.2,0.3-0.3,0.6-0.3h2l-2.9,5h-1.1C-453.3,280.5-453.7,280.2-453.7,279.8z M-440.8,291.2h-5.4V284h5.4V291.2z
	 M-435.8,291.2h-4.3V284c0-0.4-0.3-0.7-0.7-0.7h-5.4c-0.4,0-0.7,0.3-0.7,0.7v7.2h-4.6v-9.3h15.7V291.2z M-433.6,279.8
	c0,0.4-0.3,0.7-0.7,0.7h-1.3l-2.9-5h2l0,0c0.2,0,0.4,0.1,0.6,0.3l2.1,2.9c0.1,0.1,0.1,0.3,0.1,0.4v0.7H-433.6z"/>
</svg>
